Coordinates
version=1
nRows=54
nColumns=12
inDegrees=yes

Units are S.I. units (second, meters, Newtons, ...)
Angles are in degrees

endheader
time	SC_y	SC_z	SC_x	AC_y	AC_z	AC_x	GH_y	GH_z	GH_yy	EL_x	PS_y
       0.0              -44.06          27.29          72.74          69.51          4.453          2.683         -107.7          75.73          3.724          120.5          102.4
    0.0346              -44.06          27.29          72.73           69.5          4.451          2.682         -107.6          75.72          3.723          120.5          102.4
    0.0692              -44.05          27.29          72.72           69.5          4.448           2.68         -107.6          75.71          3.721          120.5          102.4
    0.1038              -44.05          27.29          72.71           69.5          4.446          2.678         -107.6          75.71          3.719          120.5          102.3
    0.1384              -44.04          27.29           72.7          69.49          4.443          2.676         -107.6           75.7          3.717          120.5          102.3
     0.173              -44.04          27.29          72.69          69.49          4.441          2.674         -107.6          75.69          3.715          120.4          102.3
    0.2076              -44.03          27.29          72.68          69.48          4.438          2.672         -107.6          75.68          3.713          120.4          102.3
    0.2422              -44.02          27.29          72.67          69.47          4.435          2.669         -107.6          75.67          3.711          120.4          102.3
    0.2768              -44.02          27.29          72.65          69.47          4.431          2.667         -107.5          75.65          3.708          120.4          102.2
    0.3114              -44.01           27.3          72.64          69.46          4.428          2.664         -107.5          75.64          3.706          120.4          102.2
     0.346               -44.0           27.3          72.63          69.45          4.424          2.661         -107.5          75.63          3.703          120.3          102.2
    0.3806              -43.99           27.3          72.61          69.45           4.42          2.658         -107.5          75.61            3.7          120.3          102.2
    0.4152              -43.99           27.3          72.59          69.44          4.415          2.654         -107.4           75.6          3.697          120.3          102.1
    0.4498              -43.98           27.3          72.58          69.43           4.41          2.651         -107.4          75.58          3.693          120.2          102.1
    0.4844              -43.96           27.3          72.56          69.42          4.405          2.647         -107.4          75.56          3.689          120.2          102.1
     0.519              -43.95           27.3          72.53          69.41          4.399          2.642         -107.4          75.54          3.685          120.2          102.0
    0.5536              -43.94           27.3          72.51           69.4          4.393          2.638         -107.3          75.52          3.681          120.1          102.0
    0.5882              -43.93           27.3          72.49          69.38          4.386          2.632         -107.3           75.5          3.676          120.1          102.0
    0.6228              -43.91          27.31          72.46          69.37          4.379          2.627         -107.2          75.47           3.67          120.0          101.9
    0.6574               -43.9          27.31          72.43          69.35          4.371          2.621         -107.2          75.44          3.664          120.0          101.9
     0.692              -43.88          27.31          72.39          69.34          4.362          2.614         -107.1          75.41          3.658          119.9          101.8
    0.7266              -43.86          27.31          72.36          69.32          4.352          2.606         -107.1          75.38          3.651          119.9          101.8
    0.7613              -43.84          27.32          72.32           69.3          4.342          2.598         -107.0          75.34          3.643          119.8          101.7
    0.7959              -43.81          27.32          72.27          69.28           4.33          2.589         -107.0           75.3          3.634          119.7          101.6
    0.8305              -43.79          27.32          72.22          69.25          4.317          2.579         -106.9          75.25          3.624          119.6          101.5
    0.8651              -43.76          27.32          72.17          69.22          4.302          2.568         -106.8           75.2          3.614          119.5          101.4
    0.8997              -43.72          27.33          72.11          69.19          4.285          2.555         -106.7          75.14          3.601          119.4          101.3
    0.9343              -43.69          27.33          72.04          69.16          4.267          2.541         -106.6          75.07          3.588          119.3          101.2
    0.9689              -43.64          27.34          71.96          69.12          4.246          2.525         -106.5           75.0          3.572          119.2          101.1
     1.003               -43.6          27.34          71.87          69.07          4.222          2.506         -106.4          74.92          3.555          119.0          100.9
     1.038              -43.54          27.35          71.77          69.02          4.194          2.486         -106.2          74.82          3.535          118.8          100.8
     1.073              -43.48          27.36          71.65          68.96          4.163          2.462         -106.0          74.71          3.512          118.6          100.6
     1.107               -43.4          27.37          71.51           68.9          4.127          2.434         -105.8          74.58          3.486          118.4          100.4
     1.142              -43.32          27.38          71.35          68.82          4.085          2.402         -105.6          74.43          3.455          118.1          100.1
     1.176              -43.22          27.39          71.17          68.72          4.036          2.364         -105.3          74.26          3.419          117.8          99.79
     1.211               -43.1           27.4          70.95          68.62          3.978           2.32         -105.0          74.06          3.377          117.4          99.43
     1.246              -42.97          27.42           70.7          68.49          3.909          2.267         -104.6          73.81          3.326          117.0           99.0
      1.28               -42.8          27.44          70.39          68.33          3.827          2.204         -104.2          73.52          3.266          116.4          98.49
     1.315               -42.6          27.46          70.01          68.14          3.727          2.128         -103.6          73.17          3.193          115.8          97.87
     1.349              -42.35          27.49          69.55          67.91          3.605          2.035         -102.9          72.74          3.103          115.0          97.11
     1.384              -42.05          27.52          68.99          67.63          3.455           1.92         -102.1          72.21          2.993          114.0          96.18
     1.419              -41.67          27.57          68.29          67.28          3.267          1.776         -101.0          71.55          2.856          112.8          95.01
     1.453               -41.2          27.62           67.4          66.83          3.031          1.595         -99.71          70.72          2.683          111.2          93.54
     1.488              -40.59           27.7          66.27          66.27           2.73          1.366         -98.03          69.66          2.463          109.3          91.68
     1.523              -39.82          27.79          64.83          65.55          2.346          1.072         -95.88          68.31          2.181          106.7          89.29
     1.557              -38.82           27.9          62.98          64.62          1.852         0.6942         -93.12          66.57           1.82          103.5          86.22
     1.592              -37.55          28.05          60.61          63.43          1.222         0.2122          -89.6          64.35          1.358          99.38           82.3
     1.626              -35.95          28.24          57.64          61.94         0.4291         -0.394         -85.17          61.55         0.7779          94.19          77.37
     1.661              -34.01          28.47          54.01          60.13        -0.5368         -1.133         -79.77          58.15        0.07063          87.87          71.37
     1.696              -31.75          28.73          49.81          58.02         -1.656         -1.989         -73.51          54.21        -0.7492          80.54          64.41
      1.73              -29.31          29.02          45.27          55.74         -2.869         -2.916         -66.74          49.93         -1.637          72.61          56.88
     1.765              -26.87           29.3          40.72          53.46         -4.081         -3.843         -59.96          45.66         -2.525          64.67          49.35
     1.799              -24.61          29.57          36.52          51.36         -5.201         -4.699         -53.71          41.72         -3.344          57.34          42.39
     1.834              -22.67          29.79          32.89          49.54         -6.166         -5.438         -48.31          38.31         -4.052          51.02          36.38
